HIERARCHY
ROOT Hips
{
	OFFSET 0.00 0.00 0.00
	CHANNELS 6 Xposition Yposition Zposition Xrotation Yrotation Zrotation
	JOINT Spine
	{
		OFFSET 0.00000 1.70439 2.55658
		CHANNELS 3 Xrotation Yrotation Zrotation
		JOINT Spine1
		{
			OFFSET 0.00000 0.59193 3.35699
			CHANNELS 3 Xrotation Yrotation Zrotation
			JOINT Spine2
			{
				OFFSET 0.00000 0.29710 3.39581
				CHANNELS 3 Xrotation Yrotation Zrotation
				JOINT Spine3
				{
					OFFSET 0.00000 0.00000 3.40878
					CHANNELS 3 Xrotation Yrotation Zrotation
					JOINT Neck
					{
						OFFSET 0.00000 -1.27828 8.94804
						CHANNELS 3 Xrotation Yrotation Zrotation
						JOINT Head
						{
							OFFSET 0.00000 -0.81390 4.61586
							CHANNELS 3 Xrotation Yrotation Zrotation
							End Site
							{
								OFFSET 0.00000 0.00001 5.51796
							}
						}
					}
					JOINT RightShoulder
					{
						OFFSET -1.18875 -1.98124 6.41925
						CHANNELS 3 Xrotation Yrotation Zrotation
						JOINT RightArm
						{
							OFFSET -5.90412 0.00000 0.00000
							CHANNELS 3 Xrotation Yrotation Zrotation
							JOINT RightForeArm
							{
								OFFSET -11.94674 0.00000 0.00000
								CHANNELS 3 Xrotation Yrotation Zrotation
								JOINT RightHand
								{
									OFFSET -10.17720 0.00000 0.00000
									CHANNELS 3 Xrotation Yrotation Zrotation
									JOINT RightHandEnd
									{
										OFFSET -2.84518 0.00000 0.00000
										CHANNELS 3 Xrotation Yrotation Zrotation
										End Site
										{
											OFFSET -2.84518 0.00000 0.00000
										}
									}
									JOINT RightHandThumb1
									{
										OFFSET -1.13807 -1.89679 -0.75871
										CHANNELS 3 Yrotation Xrotation Zrotation
										End Site
										{
											OFFSET -2.74823 -0.73639 0.00000
										}
									}
								}
							}
						}
					}
					JOINT LeftShoulder
					{
						OFFSET 1.18875 -1.98124 6.41925
						CHANNELS 3 Xrotation Yrotation Zrotation
						JOINT LeftArm
						{
							OFFSET 5.90412 0.00000 0.00000
							CHANNELS 3 Xrotation Yrotation Zrotation
							JOINT LeftForeArm
							{
								OFFSET 11.94674 0.00000 0.00000
								CHANNELS 3 Xrotation Yrotation Zrotation
								JOINT LeftHand
								{
									OFFSET 10.17720 0.00000 0.00000
									CHANNELS 3 Xrotation Yrotation Zrotation
									JOINT LeftHandEnd
									{
										OFFSET 2.84518 0.00000 0.00000
										CHANNELS 3 Xrotation Yrotation Zrotation
										End Site
										{
											OFFSET 2.84518 0.00000 0.00000
										}
									}
									JOINT LeftHandThumb1
									{
										OFFSET 1.13807 -1.89679 -0.75871
										CHANNELS 3 Yrotation Xrotation Zrotation
										End Site
										{
											OFFSET 2.74823 -0.73639 0.00000
										}
									}
								}
							}
						}
					}
				}
			}
		}
	}
	JOINT RightUpLeg
	{
		OFFSET -3.52662 0.00000 -1.03025
		CHANNELS 3 Xrotation Yrotation Zrotation
		JOINT RightLeg
		{
			OFFSET 0.00001 0.00000 -17.80159
			CHANNELS 3 Xrotation Yrotation Zrotation
			JOINT RightFoot
			{
				OFFSET 0.00001 0.00000 -16.85992
				CHANNELS 3 Xrotation Yrotation Zrotation
				JOINT RightToeBase
				{
					OFFSET 0.00000 -5.42953 -1.97619
					CHANNELS 3 Xrotation Yrotation Zrotation
					End Site
					{
						OFFSET 0.00000 -2.85300 -0.00000
					}
				}
			}
		}
	}
	JOINT LeftUpLeg
	{
		OFFSET 3.52662 0.00000 -1.03025
		CHANNELS 3 Xrotation Yrotation Zrotation
		JOINT LeftLeg
		{
			OFFSET 0.00001 0.00000 -17.80159
			CHANNELS 3 Xrotation Yrotation Zrotation
			JOINT LeftFoot
			{
				OFFSET 0.00001 0.00000 -16.85992
				CHANNELS 3 Xrotation Yrotation Zrotation
				JOINT LeftToeBase
				{
					OFFSET 0.00000 -5.42953 -1.97619
					CHANNELS 3 Xrotation Yrotation Zrotation
					End Site
					{
						OFFSET 0.00000 -2.85300 -0.00000
					}
				}
			}
		}
	}
}
MOTION
Frames: 6
Frame Time:	0.0333333
 2.4269 -9.2441 43.0444 3.3237 -0.2952 -174.0952 11.7446 -1.4679 -0.0457 4.7998 -0.4301 -0.2121 3.3067 -1.3752 -0.5282 0.3500 0.3489 0.1022 1.3636 0.1986 -0.5580 -2.7012 -0.4958 -1.0555 16.6613 -14.2494 12.0295 -20.5993 -34.6468 -2.9549 -0.0000 0.0001 54.4168 -10.2463 27.4413 2.5957 0.0000 -0.0000 0.0000 0.0000 -0.0000 -0.0000 13.0773 9.2825 -15.4645 -26.3844 43.8197 7.6892 -0.0000 -0.0000 -54.4420 -3.0928 -23.8694 1.3562 0.0000 -0.0000 -0.0000 0.0000 -0.0000 0.0000 -35.1878 7.7955 -13.3962 80.5862 0.0000 0.0000 -8.9338 -5.4382 -17.5351 -11.3980 0.0000 -0.0000 -35.4940 -1.8346 2.9970 85.0605 0.0000 0.0000 -5.8371 19.4314 -2.4270 -16.9824 0.0000 -0.0000
 2.4921 -9.3802 42.9741 1.8272 -0.1542 -174.1794 11.1249 -1.3102 0.1185 4.0914 -0.3086 -0.1570 2.7510 -1.2107 -0.3852 0.5184 0.3570 0.1692 0.2940 -0.0768 -0.7598 -0.5418 -1.0702 -0.8674 17.7731 -15.2072 12.2738 -16.3446 -37.2490 -0.0280 -0.0000 0.0000 42.3628 -13.6145 23.6222 -2.5400 0.0000 -0.0000 -0.0000 -0.0000 0.0000 0.0000 14.1539 9.9428 -15.7503 -19.1129 47.8271 2.2787 -0.0000 -0.0000 -46.0985 -8.6433 -23.2290 5.0907 0.0000 -0.0000 -0.0000 -0.0000 -0.0000 0.0000 -40.4718 7.7046 -13.7072 91.6625 0.0000 0.0000 -14.6556 -3.4293 -17.8300 -12.5802 0.0000 -0.0000 -41.8891 -1.7247 4.7203 98.5775 0.0000 0.0000 -9.4399 20.5207 -3.2414 -18.0116 0.0000 -0.0000
 2.5604 -9.1591 42.7632 1.2753 -0.1253 -173.9434 10.1567 -1.1140 0.1096 3.5413 -0.2029 -0.1331 2.3884 -1.0950 -0.5528 0.5600 0.3542 0.2087 0.1591 -0.7921 -1.1606 0.6716 -1.2937 -0.4675 17.9116 -16.2493 10.5551 -17.1881 -41.9532 -1.7486 0.0000 0.0000 32.6168 -19.0767 22.8153 -10.2673 -0.0000 -0.0000 0.0000 -0.0000 0.0000 0.0000 15.2181 10.6487 -14.2925 -16.6311 52.8857 1.1107 -0.0000 -0.0000 -38.1629 -21.4640 -19.7024 10.4016 -0.0000 0.0000 -0.0000 -0.0000 0.0000 0.0000 -40.2204 7.3856 -14.8843 91.5035 0.0000 0.0000 -19.1891 -2.8239 -17.4824 -13.3956 0.0000 -0.0000 -43.1246 -1.8959 5.5626 101.4902 0.0000 0.0000 -12.3828 20.8124 -3.3662 -18.7860 0.0000 -0.0000
 2.6102 -8.5811 42.4699 2.8324 0.0313 -173.1772 9.5433 -0.8381 -0.0604 3.4568 -0.1293 -0.1571 2.6613 -1.2103 -1.0076 0.5237 0.3409 0.2059 1.3184 -1.4912 -1.6102 0.6563 -1.1991 -0.2394 18.1264 -17.5259 7.7236 -28.9230 -44.9817 -12.8730 0.0000 0.0000 28.2865 -26.3294 27.4006 -22.6315 0.0000 -0.0000 -0.0000 -0.0000 0.0000 -0.0000 16.9878 11.6822 -12.2437 -30.5302 56.3144 14.1766 -0.0000 -0.0000 -33.3490 -39.2836 -18.4607 20.1354 0.0000 -0.0000 0.0000 -0.0000 -0.0000 0.0000 -33.6881 7.1083 -16.4349 81.1404 0.0000 0.0000 -19.5270 -3.3739 -17.6329 -13.2483 0.0000 -0.0000 -38.2359 -1.9719 5.3729 94.0035 0.0000 0.0000 -12.6156 19.6167 -1.6403 -17.8638 0.0000 -0.0000
 2.6275 -7.7856 41.8774 5.1267 0.4286 -172.5118 8.2578 -0.4807 -0.2290 3.3110 -0.1155 -0.1897 3.6727 -1.2505 -1.3907 0.6485 0.3609 0.2014 3.7900 -1.8564 -1.9547 0.4104 -1.1011 -0.1912 18.8961 -18.6651 4.3278 -48.4449 -41.4530 -29.2198 0.0000 0.0000 29.5024 -30.8018 41.8485 -36.8107 -0.0000 -0.0000 -0.0000 0.0000 -0.0000 -0.0000 19.4546 12.7546 -9.9112 -53.7873 52.6464 34.4409 -0.0000 -0.0000 -33.3242 -51.0813 -30.3446 29.0646 -0.0000 -0.0000 0.0000 -0.0000 0.0000 0.0000 -24.1080 6.4127 -17.5705 65.2574 0.0000 0.0000 -11.3995 -2.0856 -17.7953 -12.0064 0.0000 -0.0000 -29.7740 -2.0417 5.0145 79.5137 0.0000 0.0000 -6.0656 15.0298 1.1377 -14.2353 0.0000 -0.0000
 2.6047 -6.9664 40.6725 6.5243 0.8061 -172.6520 5.7887 -0.2369 -0.2709 2.6672 -0.1014 -0.1774 4.6879 -1.1095 -1.4496 1.0280 0.4423 0.2132 6.9900 -1.7259 -1.9774 0.5594 -1.1427 -0.1760 19.4302 -18.6545 0.7875 -64.5622 -33.3047 -40.8608 0.0000 0.0000 36.3761 -25.0710 62.2628 -45.9106 -0.0000 -0.0000 0.0000 -0.0000 -0.0000 0.0000 21.3811 13.2674 -7.1352 -68.6792 45.3035 46.1413 -0.0000 -0.0000 -39.2868 -55.0428 -46.4287 28.9034 -0.0000 0.0000 -0.0000 -0.0000 -0.0000 0.0000 -15.8127 5.1743 -16.4924 51.1364 0.0000 0.0000 -0.1168 0.1378 -16.4721 -12.7004 0.0000 -0.0000 -21.0359 -1.9016 3.7823 63.6090 0.0000 0.0000 4.2541 9.6114 1.6950 -13.6203 0.0000 -0.0000
